<svg xmlns="http://www.w3.org/2000/svg" viewBox="0 0 136.38 175.94"><defs><style>.cls-1{fill:#e2a525;}.cls-2{fill:none;stroke:#0b1a3d;stroke-miterlimit:10;stroke-width:6px;}</style></defs><g id="Layer_2" data-name="Layer 2"><g id="Layer_1-2" data-name="Layer 1"><path class="cls-1" d="M47.71,13.91H18.64a5.18,5.18,0,0,0-5.18,5.19V170.76a5.18,5.18,0,0,0,5.18,5.18H42.52a5.19,5.19,0,0,0,5.19-5.19V100.23a5.3,5.3,0,0,1,5.3-5.3h43.7a5.42,5.42,0,0,0,5.42-5.42V19.22a5.3,5.3,0,0,1,5.3-5.31h23.65a5.3,5.3,0,0,1,5.3,5.3V170.64a5.3,5.3,0,0,1-5.3,5.3h-29"/><path class="cls-2" d="M37.25,3H8.19A5.19,5.19,0,0,0,3,8.19V159.85A5.19,5.19,0,0,0,8.19,165H32.06a5.19,5.19,0,0,0,5.19-5.2V89.32a5.3,5.3,0,0,1,5.3-5.3H86.26a5.41,5.41,0,0,0,5.41-5.41V8.31A5.31,5.31,0,0,1,97,3h23.64a5.3,5.3,0,0,1,5.3,5.3V159.73a5.3,5.3,0,0,1-5.3,5.31H91.67"/></g></g></svg>