<svg xmlns="http://www.w3.org/2000/svg" viewBox="0 0 175.29 175.29"><defs><style>.cls-1{fill:#3cbeb6;stroke:#3cbeb6;}.cls-1,.cls-2{stroke-miterlimit:10;stroke-width:5px;}.cls-2{fill:none;stroke:#f4f4f4;}</style></defs><title>hiddenLogo_1</title><g id="Layer_2" data-name="Layer 2"><g id="Layer_1-2" data-name="Layer 1"><rect class="cls-1" x="2.5" y="2.5" width="170.29" height="170.29" rx="54.48"/><path class="cls-2" d="M114.49,35h8.69a2.7,2.7,0,0,1,2.67,2.75l-.36,106.56a2.7,2.7,0,0,1-2.67,2.73h-6.91a2.71,2.71,0,0,1-2.67-2.74V102.15"/><path class="cls-2" d="M60.2,146.91H53.38a3.81,3.81,0,0,1-3.79-3.82V38.69a3.81,3.81,0,0,1,3.79-3.82h8.24"/><path class="cls-2" d="M52.18,34.84H61a3,3,0,0,1,3,3V78.79a3,3,0,0,0,3,3l43.14-.34a3.1,3.1,0,0,1,3.17,2.91,3,3,0,0,1-3,3.09H67a3,3,0,0,0-3,3v1.84a3,3,0,0,0,3,3L110.2,95a3,3,0,0,1,3,3v5"/></g></g></svg>